<?xml version="1.0" encoding="UTF-8" standalone="no"?>
<!DOCTYPE svg PUBLIC "-//W3C//DTD SVG 1.1//EN" "http://www.w3.org/Graphics/SVG/1.1/DTD/svg11.dtd">
<svg xmlns="http://www.w3.org/2000/svg" version="1.1" viewBox="0.00 0.00 1125.00 890.00">
<g stroke-width="2.00" fill="none" stroke-linecap="butt">
<path stroke="#b0b0b0" vector-effect="non-scaling-stroke" d="
  M 1107.06 0.00
  Q 1106.93 88.87 1107.23 177.75
  C 1107.25 182.36 1113.07 183.21 1114.99 180.32
  Q 1115.91 178.92 1115.91 175.51
  Q 1116.05 87.75 1115.95 0.00"
/>
<path stroke="#7e7e7d" vector-effect="non-scaling-stroke" d="
  M 108.24 828.92
  L 1013.71 828.93"
/>
<path stroke="#858485" vector-effect="non-scaling-stroke" d="
  M 1013.71 828.93
  Q 1030.87 829.09 1047.98 829.14
  Q 1066.07 829.19 1075.62 814.34
  Q 1079.01 809.06 1079.01 805.50
  Q 1078.99 451.25 1079.01 96.99
  Q 1079.01 92.74 1077.85 89.70
  C 1072.55 75.78 1060.60 70.00 1046.21 70.00
  Q 573.26 70.00 100.30 70.00
  C 85.11 70.00 72.08 76.34 67.57 91.44
  Q 65.99 96.72 65.99 110.72
  Q 66.00 453.34 66.00 795.96
  C 66.00 808.73 70.78 819.33 82.35 825.42
  C 89.73 829.30 99.85 829.37 108.24 828.92"
/>
<path stroke="#191817" vector-effect="non-scaling-stroke" d="
  M 1013.71 828.93
  L 1021.34 828.65
  A 0.21 0.20 56.8 0 0 1021.42 828.26
  Q 1020.24 827.67 1017.75 827.65
  C 1007.19 827.55 995.39 827.95 986.09 827.95
  Q 569.17 827.75 152.25 827.60
  Q 121.78 827.59 112.00 827.62
  Q 109.75 827.63 108.24 828.92"
/>
<path stroke="#84605a" vector-effect="non-scaling-stroke" d="
  M 547.93 429.87
  A 0.99 0.99 0.0 0 0 546.94 428.88
  L 545.86 428.88
  A 0.99 0.99 0.0 0 0 544.87 429.87
  L 544.87 469.51
  A 0.99 0.99 0.0 0 0 545.86 470.50
  L 546.94 470.50
  A 0.99 0.99 0.0 0 0 547.93 469.51
  L 547.93 429.87"
/>
<path stroke="#855957" vector-effect="non-scaling-stroke" d="
  M 582.22 466.88
  C 564.68 461.52 565.56 436.32 583.79 431.96
  Q 592.71 429.83 600.45 435.82
  A 1.19 1.19 0.0 0 0 602.33 434.60
  Q 602.04 433.40 600.69 432.53
  C 588.41 424.64 570.53 429.49 567.24 444.59
  Q 565.31 453.45 569.74 460.92
  C 575.93 471.37 591.75 473.91 601.54 466.01
  Q 602.27 465.43 602.35 464.93
  Q 602.47 464.17 601.65 463.46
  A 0.96 0.95 -44.7 0 0 600.40 463.46
  C 595.27 467.94 588.74 468.87 582.22 466.88"
/>
<path stroke="#814340" vector-effect="non-scaling-stroke" d="
  M 729.32 467.23
  Q 729.65 448.61 729.17 430.00
  Q 729.13 428.47 727.21 428.89
  Q 726.46 429.05 726.46 429.81
  L 726.44 469.74
  Q 726.44 470.29 726.99 470.29
  L 752.58 470.25
  Q 753.05 470.25 753.17 469.79
  Q 753.69 467.73 752.01 467.74
  Q 740.92 467.81 729.85 467.77
  Q 729.31 467.76 729.32 467.23"
/>
<path stroke="#813b38" vector-effect="non-scaling-stroke" d="
  M 789.48 464.90
  C 783.59 470.72 771.88 467.87 765.99 463.45
  Q 765.55 463.12 765.15 463.48
  Q 764.73 463.85 764.72 464.48
  Q 764.71 465.11 765.33 465.68
  C 772.12 472.03 792.16 473.68 794.19 461.57
  C 796.40 448.34 779.79 450.60 771.87 445.44
  C 768.03 442.94 767.54 437.80 770.59 434.61
  C 775.64 429.32 785.68 431.17 791.27 434.56
  A 0.63 0.63 0.0 0 0 792.20 434.20
  L 792.55 432.95
  Q 792.67 432.53 792.29 432.30
  C 784.90 427.73 768.52 426.18 765.94 437.25
  C 763.29 448.60 775.80 450.07 784.38 452.35
  C 789.91 453.82 794.38 460.05 789.48 464.90"
/>
<path stroke="#8b8780" vector-effect="non-scaling-stroke" d="
  M 319.19 431.75
  A 0.55 0.55 0.0 0 1 319.74 432.30
  L 319.78 469.97
  A 0.55 0.55 0.0 0 0 320.34 470.51
  L 322.22 470.46
  A 0.55 0.55 0.0 0 0 322.75 469.92
  L 322.78 432.30
  A 0.55 0.55 0.0 0 1 323.33 431.75
  L 337.12 431.75
  A 0.55 0.55 0.0 0 0 337.67 431.22
  L 337.73 429.56
  A 0.55 0.55 0.0 0 0 337.18 428.99
  L 305.36 428.98
  A 0.55 0.55 0.0 0 0 304.81 429.56
  L 304.89 431.23
  A 0.55 0.55 0.0 0 0 305.44 431.75
  L 319.19 431.75"
/>
<path stroke="#887e79" vector-effect="non-scaling-stroke" d="
  M 356.98 456.89
  L 371.75 456.79
  Q 372.18 456.79 372.43 457.13
  Q 376.86 463.18 381.31 469.22
  Q 382.66 471.05 384.35 470.39
  Q 385.29 470.02 384.71 469.20
  L 375.54 456.40
  Q 375.16 455.88 375.77 455.67
  C 386.48 452.11 387.84 437.95 379.29 431.96
  C 373.02 427.56 361.38 428.95 353.91 429.02
  Q 353.21 429.03 353.23 429.73
  L 353.28 431.19
  Q 353.29 431.75 353.86 431.75
  C 360.54 431.70 370.30 430.83 375.63 433.22
  Q 382.08 436.12 381.52 443.93
  C 381.02 450.90 376.04 453.85 369.49 454.03
  Q 361.70 454.25 353.84 454.19
  A 0.53 0.52 -89.5 0 0 353.31 454.72
  Q 353.29 461.68 353.45 468.66
  Q 353.48 469.88 353.86 470.27
  Q 354.49 470.92 355.92 470.28
  A 0.58 0.57 78.4 0 0 356.26 469.75
  L 356.34 457.52
  Q 356.35 456.89 356.98 456.89"
/>
<path stroke="#887772" vector-effect="non-scaling-stroke" d="
  M 417.27 433.04
  A 0.38 0.38 0.0 0 1 417.96 433.03
  Q 425.75 450.13 433.54 467.18
  C 434.56 469.42 434.92 471.06 437.58 470.39
  A 0.51 0.51 0.0 0 0 437.92 469.68
  L 419.73 430.00
  A 2.21 2.21 0.0 0 0 415.71 430.00
  L 397.63 469.19
  Q 397.31 469.89 397.99 470.25
  C 399.48 471.05 400.58 470.06 401.21 468.69
  Q 409.46 450.84 417.27 433.04"
/>
<path stroke="#86706c" vector-effect="non-scaling-stroke" d="
  M 480.49 429.89
  A 0.94 0.94 0.0 0 0 479.55 428.95
  L 454.83 428.95
  A 0.94 0.94 0.0 0 0 453.89 429.89
  L 453.89 430.87
  A 0.94 0.94 0.0 0 0 454.83 431.81
  L 479.55 431.81
  A 0.94 0.94 0.0 0 0 480.49 430.87
  L 480.49 429.89"
/>
<path stroke="#836866" vector-effect="non-scaling-stroke" d="
  M 526.11 430.05
  A 1.05 1.05 0.0 0 0 525.06 429.00
  L 500.32 429.00
  A 1.05 1.05 0.0 0 0 499.27 430.05
  L 499.27 430.69
  A 1.05 1.05 0.0 0 0 500.32 431.74
  L 525.06 431.74
  A 1.05 1.05 0.0 0 0 526.11 430.69
  L 526.11 430.05"
/>
<path stroke="#835150" vector-effect="non-scaling-stroke" d="
  M 624.76 456.82
  C 634.64 456.63 650.42 459.25 652.35 444.95
  C 653.85 433.85 645.66 429.34 636.01 429.08
  Q 628.73 428.88 621.42 429.08
  Q 620.93 429.10 620.99 429.59
  L 621.18 431.17
  Q 621.26 431.81 621.90 431.80
  Q 629.22 431.66 636.46 431.60
  C 653.15 431.46 654.26 453.22 638.22 453.98
  Q 629.94 454.37 621.54 454.03
  Q 621.09 454.02 621.09 454.47
  L 621.19 469.86
  A 0.56 0.56 0.0 0 0 621.73 470.42
  L 623.36 470.48
  A 0.61 0.61 0.0 0 0 623.99 469.88
  L 624.11 457.47
  Q 624.12 456.83 624.76 456.82"
/>
<path stroke="#824b46" vector-effect="non-scaling-stroke" d="
  M 688.88 467.88
  Q 678.57 468.64 675.37 460.98
  Q 674.00 457.70 673.97 447.83
  Q 673.95 438.78 673.96 429.71
  A 0.71 0.70 0.8 0 0 673.27 429.01
  L 671.73 428.95
  Q 671.04 428.93 671.04 429.62
  Q 670.97 440.18 670.83 450.75
  Q 670.76 456.28 672.06 460.50
  C 676.88 476.15 702.98 473.51 703.96 455.99
  Q 704.47 446.74 704.03 429.70
  Q 704.01 429.02 703.33 429.00
  L 701.70 428.96
  Q 701.04 428.95 701.05 429.60
  Q 701.13 441.96 700.98 454.23
  Q 700.82 466.99 688.88 467.88"
/>
<path stroke="#7b3631" vector-effect="non-scaling-stroke" d="
  M 839.8294 429.9964
  A 1.01 1.01 0.0 0 0 838.8177 428.9881
  L 813.7377 429.0319
  A 1.01 1.01 0.0 0 0 812.7295 430.0436
  L 812.7306 430.6636
  A 1.01 1.01 0.0 0 0 813.7423 431.6719
  L 838.8223 431.6281
  A 1.01 1.01 0.0 0 0 839.8305 430.6164
  L 839.8294 429.9964"
/>
<path stroke="#7b3631" vector-effect="non-scaling-stroke" d="
  M 839.6500 449.3537
  A 1.11 1.11 0.0 0 0 838.5420 448.2417
  L 813.6220 448.1983
  A 1.11 1.11 0.0 0 0 812.5101 449.3063
  L 812.5100 449.3663
  A 1.11 1.11 0.0 0 0 813.6180 450.4783
  L 838.5380 450.5217
  A 1.11 1.11 0.0 0 0 839.6499 449.4137
  L 839.6500 449.3537"
/>
<path stroke="#86706c" vector-effect="non-scaling-stroke" d="
  M 457.55 452.20
  Q 468.15 452.13 478.76 452.05
  Q 479.76 452.04 480.17 451.68
  Q 480.84 451.10 480.44 449.93
  Q 480.25 449.38 479.66 449.37
  L 454.59 449.28
  A 0.65 0.65 0.0 0 0 453.94 449.93
  L 453.99 469.65
  Q 453.99 470.43 454.77 470.43
  L 456.30 470.43
  Q 456.92 470.44 456.92 469.82
  L 457.01 452.73
  Q 457.02 452.20 457.55 452.20"
/>
<path stroke="#86706c" vector-effect="non-scaling-stroke" d="
  M 502.96 452.03
  L 525.16 451.93
  Q 525.75 451.93 525.82 451.35
  L 525.98 450.14
  A 0.61 0.61 0.0 0 0 525.37 449.45
  L 500.11 449.49
  Q 499.46 449.50 499.47 450.14
  L 499.67 469.65
  Q 499.67 470.21 500.21 470.38
  Q 502.17 471.00 502.24 469.51
  Q 502.51 463.60 502.27 452.74
  A 0.69 0.69 0.0 0 1 502.96 452.03"
/>
<path stroke="#853130" vector-effect="non-scaling-stroke" d="
  M 839.6198 468.9328
  A 1.17 1.17 0.0 0 0 838.4458 467.7669
  L 813.7659 467.8531
  A 1.17 1.17 0.0 0 0 812.6000 469.0272
  L 812.6002 469.0672
  A 1.17 1.17 0.0 0 0 813.7742 470.2331
  L 838.4541 470.1469
  A 1.17 1.17 0.0 0 0 839.6200 468.9728
  L 839.6198 468.9328"
/>
</g>
<path fill="#eaeaea" d="
  M 0.00 0.00
  L 1107.06 0.00
  Q 1106.93 88.87 1107.23 177.75
  C 1107.25 182.36 1113.07 183.21 1114.99 180.32
  Q 1115.91 178.92 1115.91 175.51
  Q 1116.05 87.75 1115.95 0.00
  L 1125.00 0.00
  L 1125.00 890.00
  L 0.00 890.00
  L 0.00 0.00
  Z
  M 108.24 828.92
  L 1013.71 828.93
  Q 1030.87 829.09 1047.98 829.14
  Q 1066.07 829.19 1075.62 814.34
  Q 1079.01 809.06 1079.01 805.50
  Q 1078.99 451.25 1079.01 96.99
  Q 1079.01 92.74 1077.85 89.70
  C 1072.55 75.78 1060.60 70.00 1046.21 70.00
  Q 573.26 70.00 100.30 70.00
  C 85.11 70.00 72.08 76.34 67.57 91.44
  Q 65.99 96.72 65.99 110.72
  Q 66.00 453.34 66.00 795.96
  C 66.00 808.73 70.78 819.33 82.35 825.42
  C 89.73 829.30 99.85 829.37 108.24 828.92
  Z"
/>
<path fill="#757575" d="
  M 1107.06 0.00
  L 1115.95 0.00
  Q 1116.05 87.75 1115.91 175.51
  Q 1115.91 178.92 1114.99 180.32
  C 1113.07 183.21 1107.25 182.36 1107.23 177.75
  Q 1106.93 88.87 1107.06 0.00
  Z"
/>
<path fill="#201e1f" d="
  M 1013.71 828.93
  L 1021.34 828.65
  A 0.21 0.20 56.8 0 0 1021.42 828.26
  Q 1020.24 827.67 1017.75 827.65
  C 1007.19 827.55 995.39 827.95 986.09 827.95
  Q 569.17 827.75 152.25 827.60
  Q 121.78 827.59 112.00 827.62
  Q 109.75 827.63 108.24 828.92
  C 99.85 829.37 89.73 829.30 82.35 825.42
  C 70.78 819.33 66.00 808.73 66.00 795.96
  Q 66.00 453.34 65.99 110.72
  Q 65.99 96.72 67.57 91.44
  C 72.08 76.34 85.11 70.00 100.30 70.00
  Q 573.26 70.00 1046.21 70.00
  C 1060.60 70.00 1072.55 75.78 1077.85 89.70
  Q 1079.01 92.74 1079.01 96.99
  Q 1078.99 451.25 1079.01 805.50
  Q 1079.01 809.06 1075.62 814.34
  Q 1066.07 829.19 1047.98 829.14
  Q 1030.87 829.09 1013.71 828.93
  Z
  M 547.93 429.87
  A 0.99 0.99 0.0 0 0 546.94 428.88
  L 545.86 428.88
  A 0.99 0.99 0.0 0 0 544.87 429.87
  L 544.87 469.51
  A 0.99 0.99 0.0 0 0 545.86 470.50
  L 546.94 470.50
  A 0.99 0.99 0.0 0 0 547.93 469.51
  L 547.93 429.87
  Z
  M 582.22 466.88
  C 564.68 461.52 565.56 436.32 583.79 431.96
  Q 592.71 429.83 600.45 435.82
  A 1.19 1.19 0.0 0 0 602.33 434.60
  Q 602.04 433.40 600.69 432.53
  C 588.41 424.64 570.53 429.49 567.24 444.59
  Q 565.31 453.45 569.74 460.92
  C 575.93 471.37 591.75 473.91 601.54 466.01
  Q 602.27 465.43 602.35 464.93
  Q 602.47 464.17 601.65 463.46
  A 0.96 0.95 -44.7 0 0 600.40 463.46
  C 595.27 467.94 588.74 468.87 582.22 466.88
  Z
  M 729.32 467.23
  Q 729.65 448.61 729.17 430.00
  Q 729.13 428.47 727.21 428.89
  Q 726.46 429.05 726.46 429.81
  L 726.44 469.74
  Q 726.44 470.29 726.99 470.29
  L 752.58 470.25
  Q 753.05 470.25 753.17 469.79
  Q 753.69 467.73 752.01 467.74
  Q 740.92 467.81 729.85 467.77
  Q 729.31 467.76 729.32 467.23
  Z
  M 789.48 464.90
  C 783.59 470.72 771.88 467.87 765.99 463.45
  Q 765.55 463.12 765.15 463.48
  Q 764.73 463.85 764.72 464.48
  Q 764.71 465.11 765.33 465.68
  C 772.12 472.03 792.16 473.68 794.19 461.57
  C 796.40 448.34 779.79 450.60 771.87 445.44
  C 768.03 442.94 767.54 437.80 770.59 434.61
  C 775.64 429.32 785.68 431.17 791.27 434.56
  A 0.63 0.63 0.0 0 0 792.20 434.20
  L 792.55 432.95
  Q 792.67 432.53 792.29 432.30
  C 784.90 427.73 768.52 426.18 765.94 437.25
  C 763.29 448.60 775.80 450.07 784.38 452.35
  C 789.91 453.82 794.38 460.05 789.48 464.90
  Z
  M 319.19 431.75
  A 0.55 0.55 0.0 0 1 319.74 432.30
  L 319.78 469.97
  A 0.55 0.55 0.0 0 0 320.34 470.51
  L 322.22 470.46
  A 0.55 0.55 0.0 0 0 322.75 469.92
  L 322.78 432.30
  A 0.55 0.55 0.0 0 1 323.33 431.75
  L 337.12 431.75
  A 0.55 0.55 0.0 0 0 337.67 431.22
  L 337.73 429.56
  A 0.55 0.55 0.0 0 0 337.18 428.99
  L 305.36 428.98
  A 0.55 0.55 0.0 0 0 304.81 429.56
  L 304.89 431.23
  A 0.55 0.55 0.0 0 0 305.44 431.75
  L 319.19 431.75
  Z
  M 356.98 456.89
  L 371.75 456.79
  Q 372.18 456.79 372.43 457.13
  Q 376.86 463.18 381.31 469.22
  Q 382.66 471.05 384.35 470.39
  Q 385.29 470.02 384.71 469.20
  L 375.54 456.40
  Q 375.16 455.88 375.77 455.67
  C 386.48 452.11 387.84 437.95 379.29 431.96
  C 373.02 427.56 361.38 428.95 353.91 429.02
  Q 353.21 429.03 353.23 429.73
  L 353.28 431.19
  Q 353.29 431.75 353.86 431.75
  C 360.54 431.70 370.30 430.83 375.63 433.22
  Q 382.08 436.12 381.52 443.93
  C 381.02 450.90 376.04 453.85 369.49 454.03
  Q 361.70 454.25 353.84 454.19
  A 0.53 0.52 -89.5 0 0 353.31 454.72
  Q 353.29 461.68 353.45 468.66
  Q 353.48 469.88 353.86 470.27
  Q 354.49 470.92 355.92 470.28
  A 0.58 0.57 78.4 0 0 356.26 469.75
  L 356.34 457.52
  Q 356.35 456.89 356.98 456.89
  Z
  M 417.27 433.04
  A 0.38 0.38 0.0 0 1 417.96 433.03
  Q 425.75 450.13 433.54 467.18
  C 434.56 469.42 434.92 471.06 437.58 470.39
  A 0.51 0.51 0.0 0 0 437.92 469.68
  L 419.73 430.00
  A 2.21 2.21 0.0 0 0 415.71 430.00
  L 397.63 469.19
  Q 397.31 469.89 397.99 470.25
  C 399.48 471.05 400.58 470.06 401.21 468.69
  Q 409.46 450.84 417.27 433.04
  Z
  M 480.49 429.89
  A 0.94 0.94 0.0 0 0 479.55 428.95
  L 454.83 428.95
  A 0.94 0.94 0.0 0 0 453.89 429.89
  L 453.89 430.87
  A 0.94 0.94 0.0 0 0 454.83 431.81
  L 479.55 431.81
  A 0.94 0.94 0.0 0 0 480.49 430.87
  L 480.49 429.89
  Z
  M 526.11 430.05
  A 1.05 1.05 0.0 0 0 525.06 429.00
  L 500.32 429.00
  A 1.05 1.05 0.0 0 0 499.27 430.05
  L 499.27 430.69
  A 1.05 1.05 0.0 0 0 500.32 431.74
  L 525.06 431.74
  A 1.05 1.05 0.0 0 0 526.11 430.69
  L 526.11 430.05
  Z
  M 624.76 456.82
  C 634.64 456.63 650.42 459.25 652.35 444.95
  C 653.85 433.85 645.66 429.34 636.01 429.08
  Q 628.73 428.88 621.42 429.08
  Q 620.93 429.10 620.99 429.59
  L 621.18 431.17
  Q 621.26 431.81 621.90 431.80
  Q 629.22 431.66 636.46 431.60
  C 653.15 431.46 654.26 453.22 638.22 453.98
  Q 629.94 454.37 621.54 454.03
  Q 621.09 454.02 621.09 454.47
  L 621.19 469.86
  A 0.56 0.56 0.0 0 0 621.73 470.42
  L 623.36 470.48
  A 0.61 0.61 0.0 0 0 623.99 469.88
  L 624.11 457.47
  Q 624.12 456.83 624.76 456.82
  Z
  M 688.88 467.88
  Q 678.57 468.64 675.37 460.98
  Q 674.00 457.70 673.97 447.83
  Q 673.95 438.78 673.96 429.71
  A 0.71 0.70 0.8 0 0 673.27 429.01
  L 671.73 428.95
  Q 671.04 428.93 671.04 429.62
  Q 670.97 440.18 670.83 450.75
  Q 670.76 456.28 672.06 460.50
  C 676.88 476.15 702.98 473.51 703.96 455.99
  Q 704.47 446.74 704.03 429.70
  Q 704.01 429.02 703.33 429.00
  L 701.70 428.96
  Q 701.04 428.95 701.05 429.60
  Q 701.13 441.96 700.98 454.23
  Q 700.82 466.99 688.88 467.88
  Z
  M 839.8294 429.9964
  A 1.01 1.01 0.0 0 0 838.8177 428.9881
  L 813.7377 429.0319
  A 1.01 1.01 0.0 0 0 812.7295 430.0436
  L 812.7306 430.6636
  A 1.01 1.01 0.0 0 0 813.7423 431.6719
  L 838.8223 431.6281
  A 1.01 1.01 0.0 0 0 839.8305 430.6164
  L 839.8294 429.9964
  Z
  M 839.6500 449.3537
  A 1.11 1.11 0.0 0 0 838.5420 448.2417
  L 813.6220 448.1983
  A 1.11 1.11 0.0 0 0 812.5101 449.3063
  L 812.5100 449.3663
  A 1.11 1.11 0.0 0 0 813.6180 450.4783
  L 838.5380 450.5217
  A 1.11 1.11 0.0 0 0 839.6499 449.4137
  L 839.6500 449.3537
  Z
  M 457.55 452.20
  Q 468.15 452.13 478.76 452.05
  Q 479.76 452.04 480.17 451.68
  Q 480.84 451.10 480.44 449.93
  Q 480.25 449.38 479.66 449.37
  L 454.59 449.28
  A 0.65 0.65 0.0 0 0 453.94 449.93
  L 453.99 469.65
  Q 453.99 470.43 454.77 470.43
  L 456.30 470.43
  Q 456.92 470.44 456.92 469.82
  L 457.01 452.73
  Q 457.02 452.20 457.55 452.20
  Z
  M 502.96 452.03
  L 525.16 451.93
  Q 525.75 451.93 525.82 451.35
  L 525.98 450.14
  A 0.61 0.61 0.0 0 0 525.37 449.45
  L 500.11 449.49
  Q 499.46 449.50 499.47 450.14
  L 499.67 469.65
  Q 499.67 470.21 500.21 470.38
  Q 502.17 471.00 502.24 469.51
  Q 502.51 463.60 502.27 452.74
  A 0.69 0.69 0.0 0 1 502.96 452.03
  Z
  M 839.6198 468.9328
  A 1.17 1.17 0.0 0 0 838.4458 467.7669
  L 813.7659 467.8531
  A 1.17 1.17 0.0 0 0 812.6000 469.0272
  L 812.6002 469.0672
  A 1.17 1.17 0.0 0 0 813.7742 470.2331
  L 838.4541 470.1469
  A 1.17 1.17 0.0 0 0 839.6200 468.9728
  L 839.6198 468.9328
  Z"
/>
<rect fill="#e8a294" x="544.87" y="428.88" width="3.06" height="41.62" rx="0.99"/>
<path fill="#ea948f" d="
  M 582.22 466.88
  C 588.74 468.87 595.27 467.94 600.40 463.46
  A 0.96 0.95 -44.7 0 1 601.65 463.46
  Q 602.47 464.17 602.35 464.93
  Q 602.27 465.43 601.54 466.01
  C 591.75 473.91 575.93 471.37 569.74 460.92
  Q 565.31 453.45 567.24 444.59
  C 570.53 429.49 588.41 424.64 600.69 432.53
  Q 602.04 433.40 602.33 434.60
  A 1.19 1.19 0.0 0 1 600.45 435.82
  Q 592.71 429.83 583.79 431.96
  C 565.56 436.32 564.68 461.52 582.22 466.88
  Z"
/>
<path fill="#e16861" d="
  M 729.85 467.77
  Q 740.92 467.81 752.01 467.74
  Q 753.69 467.73 753.17 469.79
  Q 753.05 470.25 752.58 470.25
  L 726.99 470.29
  Q 726.44 470.29 726.44 469.74
  L 726.46 429.81
  Q 726.46 429.05 727.21 428.89
  Q 729.13 428.47 729.17 430.00
  Q 729.65 448.61 729.32 467.23
  Q 729.31 467.76 729.85 467.77
  Z"
/>
<path fill="#e15851" d="
  M 789.48 464.90
  C 794.38 460.05 789.91 453.82 784.38 452.35
  C 775.80 450.07 763.29 448.60 765.94 437.25
  C 768.52 426.18 784.90 427.73 792.29 432.30
  Q 792.67 432.53 792.55 432.95
  L 792.20 434.20
  A 0.63 0.63 0.0 0 1 791.27 434.56
  C 785.68 431.17 775.64 429.32 770.59 434.61
  C 767.54 437.80 768.03 442.94 771.87 445.44
  C 779.79 450.60 796.40 448.34 794.19 461.57
  C 792.16 473.68 772.12 472.03 765.33 465.68
  Q 764.71 465.11 764.72 464.48
  Q 764.73 463.85 765.15 463.48
  Q 765.55 463.12 765.99 463.45
  C 771.88 467.87 783.59 470.72 789.48 464.90
  Z"
/>
<path fill="#f6efe0" d="
  M 319.19 431.75
  L 305.44 431.75
  A 0.55 0.55 0.0 0 1 304.89 431.23
  L 304.81 429.56
  A 0.55 0.55 0.0 0 1 305.36 428.98
  L 337.18 428.99
  A 0.55 0.55 0.0 0 1 337.73 429.56
  L 337.67 431.22
  A 0.55 0.55 0.0 0 1 337.12 431.75
  L 323.33 431.75
  A 0.55 0.55 0.0 0 0 322.78 432.30
  L 322.75 469.92
  A 0.55 0.55 0.0 0 1 322.22 470.46
  L 320.34 470.51
  A 0.55 0.55 0.0 0 1 319.78 469.97
  L 319.74 432.30
  A 0.55 0.55 0.0 0 0 319.19 431.75
  Z"
/>
<path fill="#efddd3" d="
  M 356.34 457.52
  L 356.26 469.75
  A 0.58 0.57 78.4 0 1 355.92 470.28
  Q 354.49 470.92 353.86 470.27
  Q 353.48 469.88 353.45 468.66
  Q 353.29 461.68 353.31 454.72
  A 0.53 0.52 -89.5 0 1 353.84 454.19
  Q 361.70 454.25 369.49 454.03
  C 376.04 453.85 381.02 450.90 381.52 443.93
  Q 382.08 436.12 375.63 433.22
  C 370.30 430.83 360.54 431.70 353.86 431.75
  Q 353.29 431.75 353.28 431.19
  L 353.23 429.73
  Q 353.21 429.03 353.91 429.02
  C 361.38 428.95 373.02 427.56 379.29 431.96
  C 387.84 437.95 386.48 452.11 375.77 455.67
  Q 375.16 455.88 375.54 456.40
  L 384.71 469.20
  Q 385.29 470.02 384.35 470.39
  Q 382.66 471.05 381.31 469.22
  Q 376.86 463.18 372.43 457.13
  Q 372.18 456.79 371.75 456.79
  L 356.98 456.89
  Q 356.35 456.89 356.34 457.52
  Z"
/>
<path fill="#efcfc5" d="
  M 417.27 433.04
  Q 409.46 450.84 401.21 468.69
  C 400.58 470.06 399.48 471.05 397.99 470.25
  Q 397.31 469.89 397.63 469.19
  L 415.71 430.00
  A 2.21 2.21 0.0 0 1 419.73 430.00
  L 437.92 469.68
  A 0.51 0.51 0.0 0 1 437.58 470.39
  C 434.92 471.06 434.56 469.42 433.54 467.18
  Q 425.75 450.13 417.96 433.03
  A 0.38 0.38 0.0 0 0 417.27 433.04
  Z"
/>
<rect fill="#ebc1b8" x="453.89" y="428.95" width="26.60" height="2.86" rx="0.94"/>
<rect fill="#e5b1ac" x="499.27" y="429.00" width="26.84" height="2.74" rx="1.05"/>
<path fill="#e68481" d="
  M 624.11 457.47
  L 623.99 469.88
  A 0.61 0.61 0.0 0 1 623.36 470.48
  L 621.73 470.42
  A 0.56 0.56 0.0 0 1 621.19 469.86
  L 621.09 454.47
  Q 621.09 454.02 621.54 454.03
  Q 629.94 454.37 638.22 453.98
  C 654.26 453.22 653.15 431.46 636.46 431.60
  Q 629.22 431.66 621.90 431.80
  Q 621.26 431.81 621.18 431.17
  L 620.99 429.59
  Q 620.93 429.10 621.42 429.08
  Q 628.73 428.88 636.01 429.08
  C 645.66 429.34 653.85 433.85 652.35 444.95
  C 650.42 459.25 634.64 456.63 624.76 456.82
  Q 624.12 456.83 624.11 457.47
  Z"
/>
<path fill="#e4776d" d="
  M 688.88 467.88
  Q 700.82 466.99 700.98 454.23
  Q 701.13 441.96 701.05 429.60
  Q 701.04 428.95 701.70 428.96
  L 703.33 429.00
  Q 704.01 429.02 704.03 429.70
  Q 704.47 446.74 703.96 455.99
  C 702.98 473.51 676.88 476.15 672.06 460.50
  Q 670.76 456.28 670.83 450.75
  Q 670.97 440.18 671.04 429.62
  Q 671.04 428.93 671.73 428.95
  L 673.27 429.01
  A 0.71 0.70 0.8 0 1 673.96 429.71
  Q 673.95 438.78 673.97 447.83
  Q 674.00 457.70 675.37 460.98
  Q 678.57 468.64 688.88 467.88
  Z"
/>
<rect fill="#d64e42" x="-13.55" y="-1.32" transform="translate(826.28,430.33) rotate(-0.1)" width="27.10" height="2.64" rx="1.01"/>
<rect fill="#d64e42" x="-13.57" y="-1.14" transform="translate(826.08,449.36) rotate(0.1)" width="27.14" height="2.28" rx="1.11"/>
<path fill="#ebc1b8" d="
  M 457.01 452.73
  L 456.92 469.82
  Q 456.92 470.44 456.30 470.43
  L 454.77 470.43
  Q 453.99 470.43 453.99 469.65
  L 453.94 449.93
  A 0.65 0.65 0.0 0 1 454.59 449.28
  L 479.66 449.37
  Q 480.25 449.38 480.44 449.93
  Q 480.84 451.10 480.17 451.68
  Q 479.76 452.04 478.76 452.05
  Q 468.15 452.13 457.55 452.20
  Q 457.02 452.20 457.01 452.73
  Z"
/>
<path fill="#ebc1b8" d="
  M 502.27 452.74
  Q 502.51 463.60 502.24 469.51
  Q 502.17 471.00 500.21 470.38
  Q 499.67 470.21 499.67 469.65
  L 499.47 450.14
  Q 499.46 449.50 500.11 449.49
  L 525.37 449.45
  A 0.61 0.61 0.0 0 1 525.98 450.14
  L 525.82 451.35
  Q 525.75 451.93 525.16 451.93
  L 502.96 452.03
  A 0.69 0.69 0.0 0 0 502.27 452.74
  Z"
/>
<rect fill="#ea4441" x="-13.51" y="-1.19" transform="translate(826.11,469.00) rotate(-0.2)" width="27.02" height="2.38" rx="1.17"/>
<path fill="#12110f" d="
  M 1013.71 828.93
  L 108.24 828.92
  Q 109.75 827.63 112.00 827.62
  Q 121.78 827.59 152.25 827.60
  Q 569.17 827.75 986.09 827.95
  C 995.39 827.95 1007.19 827.55 1017.75 827.65
  Q 1020.24 827.67 1021.42 828.26
  A 0.21 0.20 56.8 0 1 1021.34 828.65
  L 1013.71 828.93
  Z"
/>
</svg>
